<svg width="38" height="37" viewBox="0 0 38 37" fill="none" xmlns="http://www.w3.org/2000/svg">
<path fill-rule="evenodd" clip-rule="evenodd" d="M34.4877 27C34.4821 27.0106 34.4766 27.0211 34.471 27.0316C33.3091 28.764 31.7304 30.2723 29.7825 31.3925C23.2283 35.1619 14.9769 33.1086 11.3526 26.8064C7.72822 20.5043 10.1034 12.3397 16.6576 8.57042C23.2118 4.8011 31.4632 6.85437 35.0876 13.1565C35.4044 13.7074 35.6753 14.2724 35.9016 14.8476L36.1823 14.8041C35.8 13.0221 35.1383 11.2684 34.1809 9.60366C29.2249 0.985998 18.2213 -1.98238 9.60366 2.97361C0.985998 7.9296 -1.98238 18.9332 2.97361 27.5509C7.9296 36.1686 18.9332 39.1369 27.5509 34.1809C30.5968 32.4292 32.937 29.922 34.471 27.0316C34.478 27.0211 34.4851 27.0106 34.4921 27H34.4877Z" fill="black"/>
<line x1="15" y1="17.5" x2="38" y2="17.5" stroke="#1E2022" stroke-width="3"/>
<line x1="15" y1="21.5" x2="30" y2="21.5" stroke="#1E2022" stroke-width="3"/>
<line x1="15" y1="25.5" x2="33" y2="25.5" stroke="#1E2022" stroke-width="3"/>
</svg>
